<svg width="50" height="50" viewBox="0 0 50 50" fill="none" xmlns="http://www.w3.org/2000/svg">
<path d="M12.5001 43.75C10.9376 43.75 9.39244 43.3681 7.86466 42.6042C6.33689 41.8403 5.10425 40.8333 4.16675 39.5833C5.06953 39.5833 5.98966 39.2271 6.92716 38.5146C7.86466 37.8021 8.33341 36.7694 8.33341 35.4167C8.33341 33.6806 8.94105 32.2049 10.1563 30.9896C11.3716 29.7743 12.8473 29.1667 14.5834 29.1667C16.3195 29.1667 17.7952 29.7743 19.0105 30.9896C20.2258 32.2049 20.8334 33.6806 20.8334 35.4167C20.8334 37.7083 20.0174 39.6701 18.3855 41.3021C16.7536 42.934 14.7917 43.75 12.5001 43.75ZM24.4792 31.25L18.7501 25.5208L37.3959 6.875C37.7779 6.49306 38.2556 6.29306 38.8292 6.275C39.4029 6.25695 39.8973 6.45695 40.3126 6.875L43.1251 9.6875C43.5417 10.1042 43.7501 10.5903 43.7501 11.1458C43.7501 11.7014 43.5417 12.1875 43.1251 12.6042L24.4792 31.25Z" fill="black"/>
</svg>
