<svg width="50" height="50" viewBox="0 0 50 50" fill="none" xmlns="http://www.w3.org/2000/svg">
<path d="M24.8959 37.5C25.6251 37.5 26.2418 37.2479 26.7459 36.7438C27.2501 36.2396 27.5015 35.6236 27.5001 34.8958C27.5001 34.1667 27.2487 33.55 26.7459 33.0458C26.2431 32.5417 25.6265 32.2903 24.8959 32.2917C24.1667 32.2917 23.5508 32.5438 23.048 33.0479C22.5452 33.5521 22.2931 34.1681 22.2917 34.8958C22.2917 35.625 22.5438 36.2417 23.048 36.7458C23.5522 37.25 24.1681 37.5014 24.8959 37.5ZM23.0209 29.4792H26.8751C26.8751 28.3333 27.0056 27.4306 27.2668 26.7708C27.5279 26.1111 28.2654 25.2083 29.4792 24.0625C30.382 23.1597 31.0938 22.3 31.6147 21.4833C32.1355 20.6667 32.3959 19.6861 32.3959 18.5417C32.3959 16.5972 31.6841 15.1042 30.2605 14.0625C28.8369 13.0208 27.1529 12.5 25.2084 12.5C23.2292 12.5 21.6237 13.0208 20.3918 14.0625C19.1598 15.1042 18.3001 16.3542 17.8126 17.8125L21.2501 19.1667C21.4237 18.5417 21.8147 17.8646 22.423 17.1354C23.0313 16.4063 23.9598 16.0417 25.2084 16.0417C26.3195 16.0417 27.1529 16.3458 27.7084 16.9542C28.264 17.5625 28.5417 18.2306 28.5417 18.9583C28.5417 19.6528 28.3334 20.3042 27.9167 20.9125C27.5001 21.5208 26.9792 22.0847 26.3542 22.6042C24.8265 23.9583 23.889 24.9826 23.5417 25.6771C23.1945 26.3715 23.0209 27.6389 23.0209 29.4792ZM25.0001 45.8333C22.1181 45.8333 19.4098 45.2868 16.8751 44.1938C14.3404 43.1007 12.1355 41.616 10.2605 39.7396C8.3855 37.8646 6.90147 35.6597 5.80842 33.125C4.71536 30.5903 4.16814 27.882 4.16675 25C4.16675 22.1181 4.71397 19.4097 5.80842 16.875C6.90286 14.3403 8.38689 12.1354 10.2605 10.2604C12.1355 8.38542 14.3404 6.90139 16.8751 5.80834C19.4098 4.71528 22.1181 4.16806 25.0001 4.16667C27.882 4.16667 30.5904 4.71389 33.1251 5.80834C35.6598 6.90278 37.8647 8.38681 39.7397 10.2604C41.6147 12.1354 43.0994 14.3403 44.1938 16.875C45.2883 19.4097 45.8348 22.1181 45.8334 25C45.8334 27.882 45.2862 30.5903 44.1917 33.125C43.0973 35.6597 41.6133 37.8646 39.7397 39.7396C37.8647 41.6146 35.6598 43.0993 33.1251 44.1938C30.5904 45.2882 27.882 45.8347 25.0001 45.8333Z" fill="black"/>
</svg>
