<svg width="50" height="50" viewBox="0 0 50 50" fill="none" xmlns="http://www.w3.org/2000/svg">
<path d="M25.0001 45.8333C22.1529 45.8333 19.4619 45.2861 16.9272 44.1917C14.3924 43.0972 12.1792 41.6042 10.2876 39.7125C8.39453 37.8208 6.90147 35.6076 5.80842 33.0729C4.71536 30.5382 4.16814 27.8472 4.16675 25C4.16675 22.1181 4.73133 19.4097 5.8605 16.875C6.98966 14.3403 8.51744 12.1354 10.4438 10.2604C12.3702 8.38542 14.6181 6.90139 17.1876 5.80834C19.757 4.71528 22.5001 4.16806 25.4167 4.16667C28.1945 4.16667 30.8161 4.64445 33.2813 5.60001C35.7466 6.55556 37.9084 7.87501 39.7668 9.55834C41.6237 11.2417 43.0994 13.2382 44.1938 15.5479C45.2883 17.8576 45.8348 20.3486 45.8334 23.0208C45.8334 27.0139 44.6181 30.0785 42.1876 32.2146C39.757 34.3507 36.8056 35.4181 33.3334 35.4167H29.4792C29.1667 35.4167 28.9501 35.5035 28.8293 35.6771C28.7084 35.8507 28.6473 36.0417 28.6459 36.25C28.6459 36.6667 28.9063 37.266 29.4272 38.0479C29.948 38.8299 30.2084 39.7236 30.2084 40.7292C30.2084 42.4653 29.7313 43.75 28.7772 44.5833C27.823 45.4167 26.564 45.8333 25.0001 45.8333ZM13.5417 27.0833C14.4445 27.0833 15.1911 26.7882 15.7813 26.1979C16.3716 25.6076 16.6667 24.8611 16.6667 23.9583C16.6667 23.0556 16.3716 22.309 15.7813 21.7188C15.1911 21.1285 14.4445 20.8333 13.5417 20.8333C12.639 20.8333 11.8924 21.1285 11.3022 21.7188C10.7119 22.309 10.4167 23.0556 10.4167 23.9583C10.4167 24.8611 10.7119 25.6076 11.3022 26.1979C11.8924 26.7882 12.639 27.0833 13.5417 27.0833ZM19.7917 18.75C20.6945 18.75 21.4411 18.4549 22.0313 17.8646C22.6216 17.2743 22.9167 16.5278 22.9167 15.625C22.9167 14.7222 22.6216 13.9757 22.0313 13.3854C21.4411 12.7951 20.6945 12.5 19.7917 12.5C18.889 12.5 18.1424 12.7951 17.5522 13.3854C16.9619 13.9757 16.6667 14.7222 16.6667 15.625C16.6667 16.5278 16.9619 17.2743 17.5522 17.8646C18.1424 18.4549 18.889 18.75 19.7917 18.75ZM30.2084 18.75C31.1112 18.75 31.8577 18.4549 32.448 17.8646C33.0383 17.2743 33.3334 16.5278 33.3334 15.625C33.3334 14.7222 33.0383 13.9757 32.448 13.3854C31.8577 12.7951 31.1112 12.5 30.2084 12.5C29.3056 12.5 28.5591 12.7951 27.9688 13.3854C27.3786 13.9757 27.0834 14.7222 27.0834 15.625C27.0834 16.5278 27.3786 17.2743 27.9688 17.8646C28.5591 18.4549 29.3056 18.75 30.2084 18.75ZM36.4584 27.0833C37.3612 27.0833 38.1077 26.7882 38.698 26.1979C39.2883 25.6076 39.5834 24.8611 39.5834 23.9583C39.5834 23.0556 39.2883 22.309 38.698 21.7188C38.1077 21.1285 37.3612 20.8333 36.4584 20.8333C35.5556 20.8333 34.8091 21.1285 34.2188 21.7188C33.6286 22.309 33.3334 23.0556 33.3334 23.9583C33.3334 24.8611 33.6286 25.6076 34.2188 26.1979C34.8091 26.7882 35.5556 27.0833 36.4584 27.0833Z" fill="black"/>
</svg>
